<?xml version="1.0" encoding="utf-8"?>
<!-- Generator: Adobe Illustrator 24.3.0, SVG Export Plug-In . SVG Version: 6.00 Build 0)  -->
<svg version="1.1" id="Layer_1" xmlns="http://www.w3.org/2000/svg" xmlns:xlink="http://www.w3.org/1999/xlink" x="0px" y="0px"
	 viewBox="0 0 24 24" style="enable-background:new 0 0 24 24;" xml:space="preserve">
<style type="text/css">
	.st0{fill-rule:evenodd;clip-rule:evenodd;fill:#9EA2AB;}
</style>
<path class="st0" d="M19.9,18.3c1.2-0.9,2.1-2.2,2.1-3.8c0-2.7-2.7-5-6-5s-6,2.2-6,5c0,2.7,2.7,5,6,5c0.7,0,1.3-0.1,2-0.2h0.2
	c0.1,0,0.2,0,0.3,0.1l1.3,0.7h0.1c0.1,0,0.2-0.1,0.2-0.2v-0.2l-0.2-1v-0.2C19.8,18.5,19.8,18.3,19.9,18.3z M9.2,4C5.2,4,2,6.7,2,10
	c0,1.8,1,3.4,2.5,4.6c0.1,0.1,0.2,0.2,0.2,0.4v0.2l-0.3,1.2v0.2c0,0.2,0.1,0.2,0.2,0.2l0.2-0.1l1.6-0.9c0.1-0.1,0.2-0.2,0.3-0.2h0.2
	c0.8,0.2,1.5,0.3,2.3,0.3h0.4c-0.2-0.5-0.2-1-0.2-1.5c0-3,2.9-5.5,6.6-5.5h0.4C15.8,6.2,12.8,4,9.2,4z M14,13.7
	c-0.4,0-0.8-0.3-0.8-0.8c0-0.4,0.3-0.8,0.8-0.8c0.4,0,0.8,0.3,0.8,0.8C14.8,13.4,14.4,13.7,14,13.7z M18,13.7
	c-0.4,0-0.8-0.3-0.8-0.8c0-0.4,0.3-0.8,0.8-0.8c0.4,0,0.8,0.3,0.8,0.8C18.8,13.4,18.4,13.7,18,13.7z M6.8,9.1c-0.5,0-1-0.4-1-1
	c0-0.5,0.4-1,1-1c0.6,0,1,0.4,1,1C7.8,8.6,7.3,9.1,6.8,9.1z M11.7,9.1c-0.5,0-1-0.4-1-1c0-0.5,0.4-1,1-1c0.6,0,1,0.4,1,1
	C12.6,8.6,12.2,9.1,11.7,9.1z"/>
</svg>
