<svg xmlns="http://www.w3.org/2000/svg" viewBox="0 0 29.85 29.91"><defs><style>.cls-1{fill:#375bd2;}</style></defs><g id="Layer_2" data-name="Layer 2"><g id="Layer_1-2" data-name="Layer 1"><rect class="cls-1" x="26.57" y="17.04" width="2.01" height="12.71"/><rect class="cls-1" x="18.55" y="17.04" width="2.01" height="12.71"/><path class="cls-1" d="M17,6.44A6.44,6.44,0,1,0,23.41,0,6.45,6.45,0,0,0,17,6.44Zm2,0a4.46,4.46,0,1,1,4.45,4.45A4.45,4.45,0,0,1,19,6.44Z"/><rect class="cls-1" x="0.2" y="0.2" width="12.66" height="12.66"/><path class="cls-1" d="M0,23.47A6.44,6.44,0,1,0,6.44,17,6.45,6.45,0,0,0,0,23.47Zm2,0a4.45,4.45,0,1,1,4.45,4.45A4.45,4.45,0,0,1,2,23.47Z"/></g></g></svg>