<svg xmlns="http://www.w3.org/2000/svg" xmlns:xlink="http://www.w3.org/1999/xlink" viewBox="0 0 219.5 224"><defs><style>.cls-1{fill:#23337b;}.cls-2{fill:url(#linear-gradient);}.cls-3{fill:url(#linear-gradient-2);}</style><linearGradient id="linear-gradient" y1="142.43" x2="159.74" y2="142.43" gradientUnits="userSpaceOnUse"><stop offset="0" stop-color="#8b9cdf"/><stop offset="1" stop-color="#375bd2"/></linearGradient><linearGradient id="linear-gradient-2" x1="83.64" y1="69.35" x2="219.5" y2="69.35" xlink:href="#linear-gradient"/></defs><g id="Layer_2" data-name="Layer 2"><g id="Layer_1-2" data-name="Layer 1"><path class="cls-1" d="M160,135.86l-.12,1.42-.12,1.42q-2.07.26-4.17.39c-1.41.08-2.82.13-4.25.13-.81,0-1.62,0-2.42,0s-1.6-.08-2.4-.14-1.58-.14-2.37-.22-1.57-.19-2.35-.3h-.08c-.5-.07-1-.15-1.49-.24l-1.47-.26-.17,0-.15,0-1.38-.28-1.38-.32-.24-.06-.24-.06-1.29-.33-1.27-.37-.3-.08-.3-.08-1.23-.39-1.21-.41-.33-.11-.33-.11-.24-.08-.22-.08h0a68.2,68.2,0,0,1-26.9-18A69.93,69.93,0,0,1,85.66,88.5v0h0s0-.06,0-.09l0-.07-.39-1.51c-.12-.51-.24-1-.35-1.53l0-.07a.28.28,0,0,1,0-.09c-.12-.51-.23-1-.33-1.54s-.2-1-.29-1.56c0,0,0,0,0-.06a.22.22,0,0,1,0-.08c-.09-.52-.18-1-.26-1.57s-.15-1.07-.22-1.61c0,0,0,0,0,0a.13.13,0,0,1,0-.06c-.07-.54-.13-1.08-.19-1.62l-.15-1.64v0h0c0-.47-.07-.94-.1-1.41s-.05-.94-.08-1.41,0-1-.05-1.42,0-1,0-1.42c0-1.48,0-2.95.13-4.41s.22-2.9.39-4.33l3.3-.06.16,11.38.33,0,.33.05.31.06.33,0,.87.1.87.12h.06l.24,0,.26,0,.48.09.5.09.25,0,.25,0L96.7,62.14l24.1,8.7L116,82.24l.54.34.54.36.14.09.14.09a3.55,3.55,0,0,0,.31.23l.31.21.53.35.51.35h0l8-7.58,18.48,16.8-9.14,8.64.44.66.42.66.09.14.09.14.12.21.12.21.15.24.15.24.42.67.4.69,10.74-3.74,9.08,22.46-11.44,4,0,.16,0,.18s0,.08,0,.12a.5.5,0,0,0,0,.12c.08.48.15,1,.23,1.44l.21,1.44c0,.15,0,.29.05.44s0,.29,0,.44.06.58.1.87.07.58.1.87Z"/><path class="cls-2" d="M158.06,157.68l1.68-19q-2.07.26-4.17.39c-1.41.08-2.82.13-4.25.13a67.29,67.29,0,0,1-48.22-20.4,70.09,70.09,0,0,1-20-49.22c0-1.48,0-2.95.13-4.41s.22-2.9.39-4.33l-18.16.28.18,12.26c-1.18.26-5.79,1.56-6.92,1.94L54,64.84,34.52,74.06,39.68,85.4c-1,.72-4.59,3.77-5.46,4.58L25.5,82.22,11.38,98.72l9.44,8.4c-.57,1-2.65,5.26-3.12,6.34L6.4,109.92.08,130.84l12.2,3.84c-.1,1.11-.32,5.6-.32,6.74v.26L0,143.14l2.56,21.74,12.86-1.58c.35,1.11,2,5.41,2.44,6.46l-10.5,6.4,11,18.8,11.2-6.84c.76.86,3.94,4.11,4.78,4.88l-7.1,10.26,17.56,12.62L52.34,205c1,.47,5.21,2.13,6.28,2.5l-2.38,12.28L77.3,224l2.5-13h.34c1.09,0,5.4-.22,6.46-.32l2.7,12.08,20.92-4.88-2.84-12.68c1.06-.47,5.16-2.55,6.16-3.12l7.16,9.74,17.16-13.14-7.5-10.22c.79-.87,3.77-4.53,4.46-5.48l10.2,5.8,10.44-19.12-10.68-6.1c.38-1.13,1.64-5.78,1.9-7Zm-77.94,9.11a24.32,24.32,0,0,1-17.42-7.36,25.53,25.53,0,0,1,0-35.56,24.3,24.3,0,0,1,34.84,0,25.53,25.53,0,0,1,0,35.56A24.32,24.32,0,0,1,80.12,166.79Z"/><path class="cls-3" d="M151.32,0A67.19,67.19,0,0,0,106,17.56a69.9,69.9,0,0,0-22.39,43.3l3.3-.06.16,11.38.33,0,.33.05.13,0,.13,0,1.07.13,1.06.15h0l.11,0,.12,0,.67.11.68.13.2,0,.2,0L96.7,62.14l24.1,8.7L116,82.24l.54.34.54.36,0,0h0l.6.41.58.4.36.24.35.24h0l8-7.58,18.48,16.8-9.14,8.64.44.66.42.66.09.14.09.14,0,0,0,0c.07.12.15.24.22.37s.15.25.22.37l0,0,0,0,.42.67.4.69,10.74-3.74,9.08,22.46-11.44,4h0v0l0,.15,0,.16s0,.08,0,.12a.5.5,0,0,0,0,.12v.1c.08.42.15.85.21,1.28s.13.85.19,1.28c0,0,0,.07,0,.11s0,.07,0,.11,0,.29.05.44,0,.29,0,.44.06.58.1.87.07.58.1.87l12,1.1-.24,2.84a67.65,67.65,0,0,0,42.51-22.82,70.66,70.66,0,0,0-2.72-95.49A67.26,67.26,0,0,0,151.32,0Z"/></g></g></svg>