<?xml version="1.0" encoding="utf-8"?>
<!-- Generator: Adobe Illustrator 24.3.0, SVG Export Plug-In . SVG Version: 6.00 Build 0)  -->
<svg version="1.1" id="Layer_1" xmlns="http://www.w3.org/2000/svg" xmlns:xlink="http://www.w3.org/1999/xlink" x="0px" y="0px"
	 viewBox="0 0 24 24" style="enable-background:new 0 0 24 24;" xml:space="preserve">
<style type="text/css">
	.st0{fill-rule:evenodd;clip-rule:evenodd;fill:#9EA2AB;}
</style>
<path class="st0" d="M17.3,19.8c0.3,0.2,0.6,0.2,0.9,0.1c0.3-0.1,0.5-0.3,0.6-0.7C19.5,16,21.3,7.7,22,4.8c0.1-0.2,0-0.5-0.2-0.6
	C21.5,4,21.3,4,21.1,4C17.6,5.3,6.8,9.2,2.4,10.7C2.1,10.7,2,11,2,11.3c0,0.3,0.2,0.6,0.5,0.6C4.5,12.5,7,13.3,7,13.3
	s1.2,3.5,1.9,5.3C9,18.8,9.2,19,9.4,19.1c0.2,0.1,0.5,0,0.6-0.1c1-0.9,2.6-2.4,2.6-2.4S15.6,18.6,17.3,19.8z M8.1,12.8l1.4,4.4
	l0.3-2.8c0,0,5.4-4.7,8.5-7.3c0.1-0.1,0.1-0.2,0-0.3c-0.1-0.1-0.2-0.1-0.3-0.1C14.5,8.9,8.1,12.8,8.1,12.8z"/>
</svg>
