<?xml version="1.0" encoding="utf-8"?>
<!-- Generator: Adobe Illustrator 24.3.0, SVG Export Plug-In . SVG Version: 6.00 Build 0)  -->
<svg version="1.1" id="Layer_1" xmlns="http://www.w3.org/2000/svg" xmlns:xlink="http://www.w3.org/1999/xlink" x="0px" y="0px"
	 viewBox="0 0 24 24" style="enable-background:new 0 0 24 24;" xml:space="preserve">
<style type="text/css">
	.st0{fill:#9EA2AB;}
</style>
<path class="st0" d="M20,6c0,0-2.3-1.8-5-2l-0.2,0.5c2.5,0.6,3.6,1.4,4.7,2.5c-2-1-4-2-7.5-2C8.4,5,6.5,6,4.5,7C5.7,6,7,5,9.2,4.5
	L9,4C6.2,4.3,4,6,4,6S1.5,9.7,1,17c2.6,2.9,6.5,3,6.5,3l0.8-1.1C7,18.4,5.4,17.5,4,16c1.6,1.2,4.1,2.5,8,2.5s6.4-1.3,8-2.5
	c-1.4,1.6-2.9,2.4-4.3,2.9l0.8,1.1c0,0,3.9,0,6.5-3C22.5,9.7,20,6,20,6z M8.7,15c-1,0-1.8-0.9-1.8-2c0-1.1,0.8-2,1.8-2
	c1,0,1.8,0.9,1.8,2C10.5,14.1,9.7,15,8.7,15z M15.3,15c-1,0-1.8-0.9-1.8-2c0-1.1,0.8-2,1.8-2s1.8,0.9,1.8,2C17,14.1,16.2,15,15.3,15
	z"/>
</svg>
