<svg width="103" height="24" viewBox="0 0 103 24" fill="none" xmlns="http://www.w3.org/2000/svg">
<path d="M29.0327 0C27.6852 0 26.45 0.721876 25.7856 1.88438L17.3526 16.5H11.0661V24H19.5247C20.8626 24 22.0988 23.2845 22.7672 22.1235L31.185 7.5H37.4545V0H29.0327Z" fill="#7E889F"/>
<path d="M6.46299 24L0 20.2593L10.536 1.88438C11.1963 0.721876 12.4238 0 13.7629 0H22.1322V7.5H15.9018L6.46299 24Z" fill="#7E889F"/>
<path d="M0.851257 0V7.71429C5.08405 7.71429 8.51241 4.26214 8.51241 0H0.851257Z" fill="#7E889F"/>
<path d="M33.624 19.7143C35.7396 19.7143 37.4546 17.9874 37.4546 15.8571C37.4546 13.7269 35.7396 12 33.624 12C31.5084 12 29.7934 13.7269 29.7934 15.8571C29.7934 17.9874 31.5084 19.7143 33.624 19.7143Z" fill="#7E889F"/>
<path d="M88.2906 15.2999C88.1544 15.8013 87.9288 16.2572 87.6564 16.6676C87.3849 17.1235 87.0231 17.4882 86.5702 17.8073C84.7138 19.2206 81.3634 19.3574 79.1902 17.2602C77.5603 15.7101 76.9264 12.838 77.9225 10.4218C78.4205 9.23648 79.3713 8.05113 80.8654 7.36729C82.5858 6.59227 85.4381 6.82022 86.978 8.50703C88.019 9.64679 88.5621 11.3792 88.4268 13.3851C88.4268 13.5674 88.3808 13.7042 88.3808 13.7042H80.4126C80.4126 14.2969 80.6843 14.7984 81.0012 15.2087C81.4087 15.7557 82.2236 16.2116 83.0386 16.2572C83.6724 16.3028 84.3969 16.166 84.8949 15.8013C85.3027 15.4822 85.5743 15.0719 85.7547 14.5705L88.2906 15.2999ZM85.4381 11.6527C85.4381 10.8321 84.8949 10.0571 84.2611 9.73791C83.4461 9.32768 82.4048 9.37319 81.6804 9.78351C81.0012 10.1482 80.5032 10.8321 80.4579 11.6983C81.5898 11.6983 82.7217 11.6983 83.8536 11.6983C84.3969 11.6527 84.8949 11.6527 85.4381 11.6527Z" fill="#7E889F"/>
<path d="M49.082 7.32181V4.76879L51.7985 3.94818V7.32181H54.0622V10.0116H51.7985V14.7073C51.7985 15.2088 51.889 15.5279 52.1154 15.7102C52.3418 15.8926 52.6587 15.9838 53.1115 15.9838C53.2926 15.9838 53.4737 15.9838 53.6548 15.9838C53.8359 15.9838 53.9717 15.9382 54.0622 15.8926V18.4C53.9265 18.4456 53.7 18.5368 53.4284 18.5824C53.1568 18.628 52.7946 18.6736 52.3418 18.6736C51.2552 18.6736 50.3949 18.3544 49.7611 17.7618C49.1272 17.1692 48.8103 16.303 48.8103 15.2088V10.0116H46.8182V7.32181H49.082Z" fill="#7E889F"/>
<path d="M63.2532 10.3307C62.5288 10.2395 61.4874 10.0115 60.3103 10.9233C60.0386 11.1513 59.8575 11.4704 59.6764 11.8807C59.5406 12.2909 59.45 12.7925 59.45 13.3852V18.4912H56.4166V7.32173H59.3595C59.3595 7.8688 59.3595 8.37028 59.3595 8.9174C59.4953 8.735 59.6311 8.50706 59.767 8.32469C59.9934 8.09675 60.2197 7.91439 60.4461 7.73204C61.1705 7.27614 62.0307 7.18496 62.8457 7.23055C62.9363 7.23055 63.0721 7.23055 63.2079 7.27614V10.3307H63.2532Z" fill="#7E889F"/>
<path d="M72.3989 7.32172H75.4323V18.5368H72.4894V17.1691C72.1272 17.7617 71.6745 18.172 71.0859 18.4456C69.7276 19.0838 67.9619 18.9927 66.7847 18.0808C65.6528 17.2146 65.2906 15.8014 65.2906 14.4337V7.32172H68.3241V13.841C68.3241 15.0263 69.0032 15.9838 70.2257 16.0294C70.8595 16.0294 71.4481 15.847 71.8556 15.391C72.3083 14.9351 72.4442 14.3425 72.4442 13.7043C72.3989 13.7955 72.3989 7.32172 72.3989 7.32172Z" fill="#7E889F"/>
<path d="M94.3574 9.9203V18.5367H91.3244V9.9203H89.4678V7.3217H91.3244C91.3244 6.18196 91.2333 5.04222 91.7764 3.99366C92.1841 3.17305 92.8634 2.53479 93.724 2.17008C94.222 1.98772 94.7651 1.89655 95.3984 1.89655C95.7159 1.89655 96.0326 1.89655 96.3041 1.94213C96.5757 1.98772 96.8021 2.03331 96.8932 2.12449V4.63191C96.8021 4.58633 96.7119 4.58633 96.5757 4.54074C96.0777 4.44956 95.4895 4.49515 95.0366 4.76869C94.5838 5.04223 94.4025 5.54371 94.4025 6.04519V7.27611H101.873V18.4911H98.8851V9.9203H94.3574Z" fill="#7E889F"/>
<path d="M102.19 3.58347C102.19 3.08198 101.964 2.5805 101.647 2.26137C101.33 1.94224 100.832 1.71429 100.334 1.71429C99.8359 1.71429 99.338 1.94224 99.0213 2.26137C98.7038 2.5805 98.4774 3.08198 98.4774 3.58347C98.4774 4.08495 98.7038 4.58643 99.0213 4.90556C99.338 5.22468 99.8359 5.45263 100.334 5.45263C100.832 5.45263 101.33 5.22468 101.647 4.90556C101.964 4.58643 102.19 4.13054 102.19 3.58347Z" fill="#7E889F"/>
</svg>
