<svg xmlns="http://www.w3.org/2000/svg" xmlns:xlink="http://www.w3.org/1999/xlink" viewBox="0 0 224 212.45"><defs><style>.cls-1{fill:url(#linear-gradient);}.cls-2{fill:url(#linear-gradient-2);}.cls-3{fill:#23337b;}</style><linearGradient id="linear-gradient" x1="88.27" y1="4.11" x2="35.49" y2="157.4" gradientUnits="userSpaceOnUse"><stop offset="0" stop-color="#8b9cdf"/><stop offset="1" stop-color="#375bd2"/></linearGradient><linearGradient id="linear-gradient-2" x1="77.16" y1="123.23" x2="225.8" y2="131.02" xlink:href="#linear-gradient"/></defs><g id="Layer_2" data-name="Layer 2"><g id="Layer_1-2" data-name="Layer 1"><path class="cls-1" d="M79.67,1.34a10,10,0,0,0-10,0L5,38.68a9.89,9.89,0,0,0-3.66,3.66,10,10,0,0,0-1.34,5V122a10,10,0,0,0,5,8.66l69.67,40.22h0V95.8L65,90.24V79.11l9.64-5.57,9.64,5.57h0l65-37.55h0Z"/><path class="cls-2" d="M219,81.78,149.33,41.56h0v75.09h0l9.64,5.57v11.12l-9.64,5.57-9.63-5.57h0l-32.51,18.78L74.67,170.89h0l69.66,40.22a10,10,0,0,0,10,0L219,173.78a10,10,0,0,0,5-8.67V90.44a10,10,0,0,0-5-8.66Z"/><polygon class="cls-3" points="139.69 133.34 102.36 111.79 102.36 100.66 112 95.1 149.33 116.65 149.33 41.56 84.31 79.11 84.31 79.11 84.31 79.11 74.67 73.54 65.03 79.11 65.03 90.23 74.67 95.8 74.67 170.89 139.69 133.34"/></g></g></svg>