<svg xmlns="http://www.w3.org/2000/svg" xmlns:xlink="http://www.w3.org/1999/xlink" viewBox="0 0 200 200"><defs><style>.cls-1{fill:url(#linear-gradient);}.cls-2{fill:url(#linear-gradient-2);}.cls-3{fill:#23337b;}</style><linearGradient id="linear-gradient" x1="0.78" y1="5.23" x2="102.33" y2="99.92" gradientUnits="userSpaceOnUse"><stop offset="0" stop-color="#8b9cdf"/><stop offset="1" stop-color="#375bd2"/></linearGradient><linearGradient id="linear-gradient-2" x1="61.28" y1="180.66" x2="215.91" y2="108.56" xlink:href="#linear-gradient"/></defs><g id="Layer_2" data-name="Layer 2"><g id="Layer_1-2" data-name="Layer 1"><path class="cls-1" d="M66.67,133.33V78.7a12,12,0,1,1,12-12h54.63V10a10,10,0,0,0-10-10H10A10,10,0,0,0,0,10V123.33a10,10,0,0,0,10,10Z"/><path class="cls-2" d="M190,66.67H133.33V121.3h0a12.26,12.26,0,0,1,7.08,2.24,11.49,11.49,0,0,1,4.36,5.94A12.21,12.21,0,0,1,143,140.53a12,12,0,0,1-21.68-7.2H66.67V190a10,10,0,0,0,10,10H190a10,10,0,0,0,10-10V76.67a10,10,0,0,0-10-10Z"/><path class="cls-3" d="M133.33,121.3V66.67H78.7a12.05,12.05,0,0,1-12,12v54.63H121.3a12.05,12.05,0,0,1,12-12Z"/></g></g></svg>