<svg width="25" height="24" viewBox="0 0 25 24" fill="none" xmlns="http://www.w3.org/2000/svg">
<path fill-rule="evenodd" clip-rule="evenodd" d="M0.5 10.4615C0.5 5.23612 5.87254 1 12.5 1C19.1275 1 24.5 5.23612 24.5 10.4615C24.5 15.6871 19.1275 19.9231 12.5 19.9231C11.7726 19.9231 11.0603 19.8722 10.3686 19.7742C9.67619 20.2622 5.67569 23.0723 5.29815 23.125C5.29815 23.125 5.14331 23.1852 5.01165 23.1077C4.88 23.0302 4.90388 22.8268 4.90388 22.8268C4.94358 22.5563 5.94096 19.112 6.12477 18.4781C2.74608 16.8042 0.5 13.8399 0.5 10.4615ZM5.17308 13.1033C5.17308 13.4679 5.48358 13.7644 5.86538 13.7644C6.24719 13.7644 6.55769 13.4679 6.55769 13.1033V8.99038H7.63792C8.01246 8.99038 8.31731 8.68623 8.31731 8.3125C8.31731 7.93877 8.01258 7.63462 7.63792 7.63462H4.09285C3.71831 7.63462 3.41346 7.93877 3.41346 8.3125C3.41346 8.68623 3.71819 8.99038 4.09285 8.99038H5.17308V13.1033ZM11.3599 13.4497C11.4265 13.6382 11.6473 13.7554 11.936 13.7554C12.0878 13.7555 12.2379 13.723 12.3761 13.66C12.5669 13.5722 12.7504 13.33 12.5397 12.6755L10.8844 8.31873C10.7675 7.98654 10.4132 7.64488 9.96096 7.63473C9.51004 7.645 9.15569 7.98654 9.03904 8.31804L7.38304 12.6768C7.17281 13.3298 7.35627 13.5718 7.54711 13.6599C7.68523 13.723 7.83534 13.7556 7.98719 13.7554C8.27588 13.7554 8.49661 13.6383 8.56296 13.4501L8.906 12.5521L11.0171 12.5522L11.3599 13.4497ZM9.96154 9.36146L10.653 11.3259H9.27004L9.96154 9.36146ZM12.9904 13.0288C12.9904 13.3787 13.288 13.6635 13.6538 13.6635H15.875C16.2409 13.6635 16.5385 13.3787 16.5385 13.0288C16.5385 12.679 16.2409 12.3942 15.875 12.3942H14.4038V8.32692C14.4038 7.94512 14.0868 7.63462 13.6971 7.63462C13.3075 7.63462 12.9904 7.94512 12.9904 8.32692V13.0288ZM16.8078 13.0631C16.8078 13.4449 17.1183 13.7554 17.5001 13.7554C17.6837 13.7552 17.8597 13.6821 17.9895 13.5523C18.1194 13.4224 18.1924 13.2464 18.1926 13.0628V11.5523L18.4328 11.312L20.0564 13.4633C20.1207 13.5491 20.2042 13.6188 20.3003 13.6665C20.3963 13.7143 20.5022 13.739 20.6095 13.7385C20.7598 13.7388 20.9062 13.6897 21.0259 13.5987C21.0986 13.5442 21.1598 13.4757 21.206 13.3974C21.2521 13.319 21.2822 13.2322 21.2945 13.1422C21.3074 13.0521 21.3023 12.9604 21.2795 12.8724C21.2567 12.7843 21.2166 12.7017 21.1616 12.6293L19.4575 10.3717L21.0351 8.79423C21.1436 8.68565 21.1979 8.536 21.1879 8.37273C21.178 8.21085 21.1056 8.05496 20.9843 7.93381C20.8543 7.80388 20.6808 7.72935 20.5079 7.72935C20.3598 7.72935 20.2233 7.78404 20.1239 7.88338L18.1924 9.81492V8.32692C18.1924 7.94512 17.8819 7.63462 17.5001 7.63462C17.1183 7.63462 16.8078 7.94512 16.8078 8.32692V13.0631Z" fill="#9EA2AB"/>
</svg>
