<svg xmlns="http://www.w3.org/2000/svg" xmlns:xlink="http://www.w3.org/1999/xlink" viewBox="0 0 190 216.3"><defs><style>.cls-1{fill:#23337b;}.cls-2{fill:url(#linear-gradient);}.cls-3{fill:url(#linear-gradient-2);}</style><linearGradient id="linear-gradient" y1="108.15" x2="190" y2="108.15" gradientUnits="userSpaceOnUse"><stop offset="0" stop-color="#8b9cdf"/><stop offset="1" stop-color="#375bd2"/></linearGradient><linearGradient id="linear-gradient-2" x1="50" y1="108.01" x2="140" y2="108.01" xlink:href="#linear-gradient"/></defs><g id="Layer_2" data-name="Layer 2"><g id="Layer_1-2" data-name="Layer 1"><path class="cls-1" d="M133.7,85.06a45,45,0,0,0-77.4,0,109.89,109.89,0,0,1,77.4,0Z"/><path class="cls-2" d="M188.66,54.07A10,10,0,0,0,185,50.41L100,1.34a10,10,0,0,0-10,0L5,50.41a10,10,0,0,0-5,8.66v98.15a10,10,0,0,0,1.34,5A9.89,9.89,0,0,0,5,165.88L90,215a10,10,0,0,0,10,0l85-49.08a9.89,9.89,0,0,0,3.66-3.66,10,10,0,0,0,1.34-5V59.07A10.06,10.06,0,0,0,188.66,54.07ZM170,108a106,106,0,0,1-36.3,23h0a45,45,0,0,1-77.4,0h0A106,106,0,0,1,20,108h0a106.1,106.1,0,0,1,36.3-23,45,45,0,0,1,77.4,0A106.1,106.1,0,0,1,170,108Z"/><path class="cls-1" d="M56.3,131a45,45,0,0,0,77.4,0,109.89,109.89,0,0,1-77.4,0Z"/><path class="cls-3" d="M56.3,85.06a44.89,44.89,0,0,0,0,45.91,109.89,109.89,0,0,0,77.4,0,44.89,44.89,0,0,0,0-45.91,109.89,109.89,0,0,0-77.4,0Z"/></g></g></svg>